<mxfile host="app.diagrams.net" modified="2023-06-08T21:26:24.272Z" agent="Mozilla/5.0 (Windows NT 10.0; Win64; x64) AppleWebKit/537.36 (KHTML, like Gecko) Chrome/114.0.0.0 Safari/537.36" etag="H895reP6vjXa9JSLxDi5" version="21.3.7" type="device">
  <diagram name="Page-1" id="2YBvvXClWsGukQMizWep">
    <mxGraphModel dx="1624" dy="1676" grid="1" gridSize="10" guides="1" tooltips="1" connect="1" arrows="1" fold="1" page="1" pageScale="1" pageWidth="850" pageHeight="1100" math="0" shadow="0">
      <root>
        <mxCell id="0" />
        <mxCell id="1" parent="0" />
        <mxCell id="DnKeB8BzZF-OrxOQI9kB-103" value="HttpServletRequest" style="shape=umlLifeline;perimeter=lifelinePerimeter;whiteSpace=wrap;html=1;container=0;dropTarget=0;collapsible=0;recursiveResize=0;outlineConnect=0;portConstraint=eastwest;newEdgeStyle={&quot;edgeStyle&quot;:&quot;elbowEdgeStyle&quot;,&quot;elbow&quot;:&quot;vertical&quot;,&quot;curved&quot;:0,&quot;rounded&quot;:0};fillColor=#1ba1e2;fontColor=#ffffff;strokeColor=#006EAF;" vertex="1" parent="1">
          <mxGeometry x="1000" y="210" width="120" height="750" as="geometry" />
        </mxCell>
        <mxCell id="DnKeB8BzZF-OrxOQI9kB-102" value="GraduationCallDAO" style="shape=umlLifeline;perimeter=lifelinePerimeter;whiteSpace=wrap;html=1;container=0;dropTarget=0;collapsible=0;recursiveResize=0;outlineConnect=0;portConstraint=eastwest;newEdgeStyle={&quot;edgeStyle&quot;:&quot;elbowEdgeStyle&quot;,&quot;elbow&quot;:&quot;vertical&quot;,&quot;curved&quot;:0,&quot;rounded&quot;:0};fillColor=#1ba1e2;fontColor=#ffffff;strokeColor=#006EAF;" vertex="1" parent="1">
          <mxGeometry x="1600" y="210" width="120" height="750" as="geometry" />
        </mxCell>
        <mxCell id="DnKeB8BzZF-OrxOQI9kB-100" value="Response" style="shape=umlLifeline;perimeter=lifelinePerimeter;whiteSpace=wrap;html=1;container=0;dropTarget=0;collapsible=0;recursiveResize=0;outlineConnect=0;portConstraint=eastwest;newEdgeStyle={&quot;edgeStyle&quot;:&quot;elbowEdgeStyle&quot;,&quot;elbow&quot;:&quot;vertical&quot;,&quot;curved&quot;:0,&quot;rounded&quot;:0};fillColor=#1ba1e2;fontColor=#ffffff;strokeColor=#006EAF;" vertex="1" parent="1">
          <mxGeometry x="1490" y="210" width="100" height="750" as="geometry" />
        </mxCell>
        <mxCell id="DnKeB8BzZF-OrxOQI9kB-99" value="Exception" style="shape=umlLifeline;perimeter=lifelinePerimeter;whiteSpace=wrap;html=1;container=0;dropTarget=0;collapsible=0;recursiveResize=0;outlineConnect=0;portConstraint=eastwest;newEdgeStyle={&quot;edgeStyle&quot;:&quot;elbowEdgeStyle&quot;,&quot;elbow&quot;:&quot;vertical&quot;,&quot;curved&quot;:0,&quot;rounded&quot;:0};fillColor=#1ba1e2;fontColor=#ffffff;strokeColor=#006EAF;" vertex="1" parent="1">
          <mxGeometry x="1380" y="210" width="100" height="750" as="geometry" />
        </mxCell>
        <mxCell id="DnKeB8BzZF-OrxOQI9kB-98" value="CallEvaluationDAO" style="shape=umlLifeline;perimeter=lifelinePerimeter;whiteSpace=wrap;html=1;container=0;dropTarget=0;collapsible=0;recursiveResize=0;outlineConnect=0;portConstraint=eastwest;newEdgeStyle={&quot;edgeStyle&quot;:&quot;elbowEdgeStyle&quot;,&quot;elbow&quot;:&quot;vertical&quot;,&quot;curved&quot;:0,&quot;rounded&quot;:0};fillColor=#1ba1e2;fontColor=#ffffff;strokeColor=#006EAF;" vertex="1" parent="1">
          <mxGeometry x="1240" y="210" width="120" height="750" as="geometry" />
        </mxCell>
        <mxCell id="DnKeB8BzZF-OrxOQI9kB-97" value="User" style="shape=umlLifeline;perimeter=lifelinePerimeter;whiteSpace=wrap;html=1;container=0;dropTarget=0;collapsible=0;recursiveResize=0;outlineConnect=0;portConstraint=eastwest;newEdgeStyle={&quot;edgeStyle&quot;:&quot;elbowEdgeStyle&quot;,&quot;elbow&quot;:&quot;vertical&quot;,&quot;curved&quot;:0,&quot;rounded&quot;:0};fillColor=#1ba1e2;fontColor=#ffffff;strokeColor=#006EAF;" vertex="1" parent="1">
          <mxGeometry x="1130" y="210" width="100" height="750" as="geometry" />
        </mxCell>
        <mxCell id="DnKeB8BzZF-OrxOQI9kB-1" value="VerbalizeButton" style="shape=umlLifeline;perimeter=lifelinePerimeter;whiteSpace=wrap;html=1;container=0;dropTarget=0;collapsible=0;recursiveResize=0;outlineConnect=0;portConstraint=eastwest;newEdgeStyle={&quot;edgeStyle&quot;:&quot;elbowEdgeStyle&quot;,&quot;elbow&quot;:&quot;vertical&quot;,&quot;curved&quot;:0,&quot;rounded&quot;:0};" vertex="1" parent="1">
          <mxGeometry x="600" y="210" width="100" height="710" as="geometry" />
        </mxCell>
        <mxCell id="DnKeB8BzZF-OrxOQI9kB-2" value="click" style="html=1;verticalAlign=bottom;startArrow=oval;endArrow=block;startSize=8;edgeStyle=elbowEdgeStyle;elbow=vertical;curved=0;rounded=0;" edge="1" parent="DnKeB8BzZF-OrxOQI9kB-1" target="DnKeB8BzZF-OrxOQI9kB-1">
          <mxGeometry relative="1" as="geometry">
            <mxPoint x="-15" y="70" as="sourcePoint" />
            <mxPoint x="45" y="70" as="targetPoint" />
          </mxGeometry>
        </mxCell>
        <mxCell id="DnKeB8BzZF-OrxOQI9kB-11" value="VerbalizeStudentsMarks" style="shape=umlLifeline;perimeter=lifelinePerimeter;whiteSpace=wrap;html=1;container=0;dropTarget=0;collapsible=0;recursiveResize=0;outlineConnect=0;portConstraint=eastwest;newEdgeStyle={&quot;edgeStyle&quot;:&quot;elbowEdgeStyle&quot;,&quot;elbow&quot;:&quot;vertical&quot;,&quot;curved&quot;:0,&quot;rounded&quot;:0};fillColor=#1ba1e2;fontColor=#ffffff;strokeColor=#006EAF;" vertex="1" parent="1">
          <mxGeometry x="750" y="210" width="160" height="660" as="geometry" />
        </mxCell>
        <mxCell id="DnKeB8BzZF-OrxOQI9kB-38" value="" style="html=1;points=[];perimeter=orthogonalPerimeter;outlineConnect=0;targetShapes=umlLifeline;portConstraint=eastwest;newEdgeStyle={&quot;edgeStyle&quot;:&quot;elbowEdgeStyle&quot;,&quot;elbow&quot;:&quot;vertical&quot;,&quot;curved&quot;:0,&quot;rounded&quot;:0};" vertex="1" parent="DnKeB8BzZF-OrxOQI9kB-11">
          <mxGeometry x="75" y="110" width="10" height="530" as="geometry" />
        </mxCell>
        <mxCell id="DnKeB8BzZF-OrxOQI9kB-23" value="ModalVerbalRecap" style="shape=umlLifeline;perimeter=lifelinePerimeter;whiteSpace=wrap;html=1;container=0;dropTarget=0;collapsible=0;recursiveResize=0;outlineConnect=0;portConstraint=eastwest;newEdgeStyle={&quot;edgeStyle&quot;:&quot;elbowEdgeStyle&quot;,&quot;elbow&quot;:&quot;vertical&quot;,&quot;curved&quot;:0,&quot;rounded&quot;:0};" vertex="1" parent="1">
          <mxGeometry x="1730" y="210" width="120" height="710" as="geometry" />
        </mxCell>
        <mxCell id="DnKeB8BzZF-OrxOQI9kB-35" value="POST /VerbalizeStudentsMarks" style="html=1;verticalAlign=bottom;endArrow=block;edgeStyle=elbowEdgeStyle;elbow=vertical;curved=0;rounded=0;" edge="1" parent="1" source="DnKeB8BzZF-OrxOQI9kB-1" target="DnKeB8BzZF-OrxOQI9kB-38">
          <mxGeometry relative="1" as="geometry">
            <mxPoint x="380" y="420" as="sourcePoint" />
            <Array as="points">
              <mxPoint x="720" y="320" />
              <mxPoint x="660" y="350" />
              <mxPoint x="440" y="320" />
              <mxPoint x="455" y="320" />
            </Array>
            <mxPoint x="548" y="420" as="targetPoint" />
          </mxGeometry>
        </mxCell>
        <mxCell id="DnKeB8BzZF-OrxOQI9kB-39" value="Session" style="shape=umlLifeline;perimeter=lifelinePerimeter;whiteSpace=wrap;html=1;container=0;dropTarget=0;collapsible=0;recursiveResize=0;outlineConnect=0;portConstraint=eastwest;newEdgeStyle={&quot;edgeStyle&quot;:&quot;elbowEdgeStyle&quot;,&quot;elbow&quot;:&quot;vertical&quot;,&quot;curved&quot;:0,&quot;rounded&quot;:0};fillColor=#1ba1e2;fontColor=#ffffff;strokeColor=#006EAF;" vertex="1" parent="1">
          <mxGeometry x="920" y="210" width="60" height="810" as="geometry" />
        </mxCell>
        <mxCell id="DnKeB8BzZF-OrxOQI9kB-40" value="" style="html=1;points=[];perimeter=orthogonalPerimeter;outlineConnect=0;targetShapes=umlLifeline;portConstraint=eastwest;newEdgeStyle={&quot;edgeStyle&quot;:&quot;elbowEdgeStyle&quot;,&quot;elbow&quot;:&quot;vertical&quot;,&quot;curved&quot;:0,&quot;rounded&quot;:0};" vertex="1" parent="DnKeB8BzZF-OrxOQI9kB-39">
          <mxGeometry x="25" y="120" width="10" height="30" as="geometry" />
        </mxCell>
        <mxCell id="DnKeB8BzZF-OrxOQI9kB-41" value="getAttribute(&quot;user&quot;)" style="html=1;verticalAlign=bottom;endArrow=block;edgeStyle=elbowEdgeStyle;elbow=vertical;curved=0;rounded=0;" edge="1" parent="1" target="DnKeB8BzZF-OrxOQI9kB-40" source="DnKeB8BzZF-OrxOQI9kB-38">
          <mxGeometry x="-0.003" width="80" relative="1" as="geometry">
            <mxPoint x="830" y="330" as="sourcePoint" />
            <mxPoint x="939.5" y="330" as="targetPoint" />
            <Array as="points">
              <mxPoint x="840" y="330" />
            </Array>
            <mxPoint as="offset" />
          </mxGeometry>
        </mxCell>
        <mxCell id="DnKeB8BzZF-OrxOQI9kB-42" value="user" style="html=1;verticalAlign=bottom;endArrow=open;dashed=1;endSize=8;edgeStyle=elbowEdgeStyle;elbow=vertical;curved=0;rounded=0;" edge="1" parent="1" source="DnKeB8BzZF-OrxOQI9kB-40" target="DnKeB8BzZF-OrxOQI9kB-38">
          <mxGeometry relative="1" as="geometry">
            <mxPoint x="940" y="360" as="sourcePoint" />
            <mxPoint x="830" y="360" as="targetPoint" />
            <Array as="points">
              <mxPoint x="900" y="360" />
              <mxPoint x="920" y="360" />
            </Array>
          </mxGeometry>
        </mxCell>
        <mxCell id="DnKeB8BzZF-OrxOQI9kB-72" value="alt" style="shape=umlFrame;whiteSpace=wrap;html=1;pointerEvents=0;width=55;height=20;" vertex="1" parent="1">
          <mxGeometry x="750" y="380" width="1120" height="450" as="geometry" />
        </mxCell>
        <mxCell id="DnKeB8BzZF-OrxOQI9kB-73" value="Try" style="text;html=1;align=center;verticalAlign=middle;whiteSpace=wrap;rounded=0;fontStyle=3;fontColor=#FF8000;" vertex="1" parent="1">
          <mxGeometry x="730" y="400" width="150" height="20" as="geometry" />
        </mxCell>
        <mxCell id="DnKeB8BzZF-OrxOQI9kB-74" value="getId()" style="html=1;verticalAlign=bottom;endArrow=block;edgeStyle=elbowEdgeStyle;elbow=vertical;curved=0;rounded=0;" edge="1" parent="1" target="DnKeB8BzZF-OrxOQI9kB-82" source="DnKeB8BzZF-OrxOQI9kB-38">
          <mxGeometry relative="1" as="geometry">
            <mxPoint x="830" y="410" as="sourcePoint" />
            <Array as="points">
              <mxPoint x="1090" y="410" />
              <mxPoint x="902" y="420" />
              <mxPoint x="882" y="430" />
              <mxPoint x="902" y="420" />
            </Array>
            <mxPoint x="987" y="420" as="targetPoint" />
          </mxGeometry>
        </mxCell>
        <mxCell id="DnKeB8BzZF-OrxOQI9kB-75" value="" style="html=1;points=[];perimeter=orthogonalPerimeter;outlineConnect=0;targetShapes=umlLifeline;portConstraint=eastwest;newEdgeStyle={&quot;edgeStyle&quot;:&quot;elbowEdgeStyle&quot;,&quot;elbow&quot;:&quot;vertical&quot;,&quot;curved&quot;:0,&quot;rounded&quot;:0};" vertex="1" parent="1">
          <mxGeometry x="1055" y="500" width="10" height="30" as="geometry" />
        </mxCell>
        <mxCell id="DnKeB8BzZF-OrxOQI9kB-76" value="(Integer) getParameter(&quot;callid&quot;) &lt;br&gt;&lt;b&gt;&lt;font color=&quot;#ff8000&quot;&gt;?: [THROW NumberFormatExcpetion &lt;br&gt;| NullPointerExcpetion]&lt;/font&gt;&lt;/b&gt;" style="html=1;verticalAlign=bottom;endArrow=block;edgeStyle=elbowEdgeStyle;elbow=vertical;curved=0;rounded=0;" edge="1" parent="1" target="DnKeB8BzZF-OrxOQI9kB-75">
          <mxGeometry relative="1" as="geometry">
            <mxPoint x="835" y="500" as="sourcePoint" />
            <Array as="points">
              <mxPoint x="1020" y="500" />
              <mxPoint x="902" y="505" />
              <mxPoint x="882" y="515" />
              <mxPoint x="902" y="505" />
            </Array>
            <mxPoint x="987" y="505" as="targetPoint" />
          </mxGeometry>
        </mxCell>
        <mxCell id="DnKeB8BzZF-OrxOQI9kB-77" value="callId" style="html=1;verticalAlign=bottom;endArrow=open;dashed=1;endSize=8;edgeStyle=elbowEdgeStyle;elbow=vertical;curved=0;rounded=0;" edge="1" parent="1" source="DnKeB8BzZF-OrxOQI9kB-75">
          <mxGeometry x="0.0031" relative="1" as="geometry">
            <mxPoint x="835" y="530" as="targetPoint" />
            <Array as="points">
              <mxPoint x="1050" y="530" />
              <mxPoint x="1095" y="535" />
              <mxPoint x="1040" y="535" />
            </Array>
            <mxPoint x="1107" y="535" as="sourcePoint" />
            <mxPoint as="offset" />
          </mxGeometry>
        </mxCell>
        <mxCell id="DnKeB8BzZF-OrxOQI9kB-78" value="" style="html=1;points=[];perimeter=orthogonalPerimeter;outlineConnect=0;targetShapes=umlLifeline;portConstraint=eastwest;newEdgeStyle={&quot;edgeStyle&quot;:&quot;elbowEdgeStyle&quot;,&quot;elbow&quot;:&quot;vertical&quot;,&quot;curved&quot;:0,&quot;rounded&quot;:0};" vertex="1" parent="1">
          <mxGeometry x="1535" y="800" width="10" height="20" as="geometry" />
        </mxCell>
        <mxCell id="DnKeB8BzZF-OrxOQI9kB-79" value="setStatus(errorCode)" style="html=1;verticalAlign=bottom;endArrow=block;edgeStyle=elbowEdgeStyle;elbow=vertical;curved=0;rounded=0;" edge="1" parent="1" target="DnKeB8BzZF-OrxOQI9kB-78">
          <mxGeometry relative="1" as="geometry">
            <mxPoint x="835" y="800" as="sourcePoint" />
            <Array as="points">
              <mxPoint x="892" y="800" />
              <mxPoint x="872" y="810" />
              <mxPoint x="892" y="800" />
            </Array>
            <mxPoint x="977" y="800" as="targetPoint" />
          </mxGeometry>
        </mxCell>
        <mxCell id="DnKeB8BzZF-OrxOQI9kB-82" value="" style="html=1;points=[];perimeter=orthogonalPerimeter;outlineConnect=0;targetShapes=umlLifeline;portConstraint=eastwest;newEdgeStyle={&quot;edgeStyle&quot;:&quot;elbowEdgeStyle&quot;,&quot;elbow&quot;:&quot;vertical&quot;,&quot;curved&quot;:0,&quot;rounded&quot;:0};" vertex="1" parent="1">
          <mxGeometry x="1175" y="410" width="10" height="30" as="geometry" />
        </mxCell>
        <mxCell id="DnKeB8BzZF-OrxOQI9kB-83" value="" style="html=1;points=[];perimeter=orthogonalPerimeter;outlineConnect=0;targetShapes=umlLifeline;portConstraint=eastwest;newEdgeStyle={&quot;edgeStyle&quot;:&quot;elbowEdgeStyle&quot;,&quot;elbow&quot;:&quot;vertical&quot;,&quot;curved&quot;:0,&quot;rounded&quot;:0};" vertex="1" parent="1">
          <mxGeometry x="1295" y="590" width="10" height="20" as="geometry" />
        </mxCell>
        <mxCell id="DnKeB8BzZF-OrxOQI9kB-84" value="idUser" style="html=1;verticalAlign=bottom;endArrow=open;dashed=1;endSize=8;edgeStyle=elbowEdgeStyle;elbow=vertical;curved=0;rounded=0;" edge="1" parent="1" source="DnKeB8BzZF-OrxOQI9kB-82" target="DnKeB8BzZF-OrxOQI9kB-38">
          <mxGeometry x="0.0031" relative="1" as="geometry">
            <mxPoint x="820" y="450" as="targetPoint" />
            <Array as="points">
              <mxPoint x="1130" y="440" />
              <mxPoint x="1160" y="450" />
              <mxPoint x="1235" y="450" />
              <mxPoint x="1180" y="450" />
            </Array>
            <mxPoint x="1250" y="450" as="sourcePoint" />
            <mxPoint as="offset" />
          </mxGeometry>
        </mxCell>
        <mxCell id="DnKeB8BzZF-OrxOQI9kB-85" value="" style="html=1;points=[];perimeter=orthogonalPerimeter;outlineConnect=0;targetShapes=umlLifeline;portConstraint=eastwest;newEdgeStyle={&quot;edgeStyle&quot;:&quot;elbowEdgeStyle&quot;,&quot;elbow&quot;:&quot;vertical&quot;,&quot;curved&quot;:0,&quot;rounded&quot;:0};" vertex="1" parent="1">
          <mxGeometry x="1425" y="740" width="10" height="30" as="geometry" />
        </mxCell>
        <mxCell id="DnKeB8BzZF-OrxOQI9kB-86" value="" style="html=1;points=[];perimeter=orthogonalPerimeter;outlineConnect=0;targetShapes=umlLifeline;portConstraint=eastwest;newEdgeStyle={&quot;edgeStyle&quot;:&quot;elbowEdgeStyle&quot;,&quot;elbow&quot;:&quot;vertical&quot;,&quot;curved&quot;:0,&quot;rounded&quot;:0};" vertex="1" parent="1">
          <mxGeometry x="1655" y="560" width="10" height="20" as="geometry" />
        </mxCell>
        <mxCell id="DnKeB8BzZF-OrxOQI9kB-87" value="" style="html=1;points=[];perimeter=orthogonalPerimeter;outlineConnect=0;targetShapes=umlLifeline;portConstraint=eastwest;newEdgeStyle={&quot;edgeStyle&quot;:&quot;elbowEdgeStyle&quot;,&quot;elbow&quot;:&quot;vertical&quot;,&quot;curved&quot;:0,&quot;rounded&quot;:0};" vertex="1" parent="1">
          <mxGeometry x="1295" y="630" width="10" height="20" as="geometry" />
        </mxCell>
        <mxCell id="DnKeB8BzZF-OrxOQI9kB-88" value="checkIfCourseOfCallIsTaughtByLecturer(callId, idUser) &lt;b&gt;&lt;font color=&quot;#ff8000&quot;&gt;?: [THROW GraduationCallDAOException]&lt;/font&gt;&lt;/b&gt;" style="html=1;verticalAlign=bottom;endArrow=block;edgeStyle=elbowEdgeStyle;elbow=vertical;curved=0;rounded=0;" edge="1" parent="1" target="DnKeB8BzZF-OrxOQI9kB-86">
          <mxGeometry x="-0.0007" relative="1" as="geometry">
            <mxPoint x="835" y="560" as="sourcePoint" />
            <Array as="points">
              <mxPoint x="1620" y="560" />
              <mxPoint x="1670" y="650" />
              <mxPoint x="1630" y="660" />
              <mxPoint x="1044" y="841.5" />
              <mxPoint x="906" y="830.5" />
              <mxPoint x="886" y="840.5" />
              <mxPoint x="906" y="830.5" />
            </Array>
            <mxPoint x="1349" y="841.5" as="targetPoint" />
            <mxPoint as="offset" />
          </mxGeometry>
        </mxCell>
        <mxCell id="DnKeB8BzZF-OrxOQI9kB-89" value="verbalizeAllMarksByCallId(currentDate, currentTime, callId)" style="html=1;verticalAlign=bottom;endArrow=block;edgeStyle=elbowEdgeStyle;elbow=vertical;curved=0;rounded=0;" edge="1" parent="1" target="DnKeB8BzZF-OrxOQI9kB-87">
          <mxGeometry x="-0.0007" relative="1" as="geometry">
            <mxPoint x="835" y="630" as="sourcePoint" />
            <Array as="points">
              <mxPoint x="1330" y="630" />
              <mxPoint x="1460" y="620" />
              <mxPoint x="1675" y="690" />
              <mxPoint x="1635" y="700" />
              <mxPoint x="1049" y="881.5" />
              <mxPoint x="911" y="870.5" />
              <mxPoint x="891" y="880.5" />
              <mxPoint x="911" y="870.5" />
            </Array>
            <mxPoint x="1720" y="690" as="targetPoint" />
            <mxPoint as="offset" />
          </mxGeometry>
        </mxCell>
        <mxCell id="DnKeB8BzZF-OrxOQI9kB-90" value="checkIfAnyMarkIsVerbalizable(callId) &lt;b&gt;&lt;font color=&quot;#ff8000&quot;&gt;?: [THROW CallEvaluationDAOException]&lt;/font&gt;&lt;/b&gt;" style="html=1;verticalAlign=bottom;endArrow=block;edgeStyle=elbowEdgeStyle;elbow=vertical;curved=0;rounded=0;" edge="1" parent="1" target="DnKeB8BzZF-OrxOQI9kB-83">
          <mxGeometry relative="1" as="geometry">
            <mxPoint x="835" y="590" as="sourcePoint" />
            <Array as="points">
              <mxPoint x="1300" y="590" />
              <mxPoint x="1160" y="720" />
              <mxPoint x="912" y="730" />
              <mxPoint x="892" y="740" />
              <mxPoint x="912" y="730" />
            </Array>
            <mxPoint x="1247" y="730" as="targetPoint" />
          </mxGeometry>
        </mxCell>
        <mxCell id="DnKeB8BzZF-OrxOQI9kB-91" value="" style="line;strokeWidth=3;align=left;verticalAlign=middle;spacingTop=-1;spacingLeft=3;spacingRight=3;rotatable=0;labelPosition=right;points=[];portConstraint=eastwest;dashed=1;strokeColor=#80FF00;" vertex="1" parent="1">
          <mxGeometry x="700" y="670" width="1090" height="8" as="geometry" />
        </mxCell>
        <mxCell id="DnKeB8BzZF-OrxOQI9kB-92" value="getMessage()" style="html=1;verticalAlign=bottom;endArrow=block;edgeStyle=elbowEdgeStyle;elbow=vertical;curved=0;rounded=0;" edge="1" parent="1" target="DnKeB8BzZF-OrxOQI9kB-85">
          <mxGeometry relative="1" as="geometry">
            <mxPoint x="835" y="740" as="sourcePoint" />
            <Array as="points">
              <mxPoint x="1300" y="740" />
              <mxPoint x="1270" y="750" />
              <mxPoint x="1050" y="761" />
              <mxPoint x="912" y="750" />
              <mxPoint x="892" y="760" />
              <mxPoint x="912" y="750" />
            </Array>
            <mxPoint x="1355" y="761" as="targetPoint" />
          </mxGeometry>
        </mxCell>
        <mxCell id="DnKeB8BzZF-OrxOQI9kB-93" value="error message" style="html=1;verticalAlign=bottom;endArrow=open;dashed=1;endSize=8;edgeStyle=elbowEdgeStyle;elbow=vertical;curved=0;rounded=0;" edge="1" parent="1" source="DnKeB8BzZF-OrxOQI9kB-85">
          <mxGeometry x="0.0031" relative="1" as="geometry">
            <mxPoint x="835" y="770" as="targetPoint" />
            <Array as="points">
              <mxPoint x="1142" y="770" />
              <mxPoint x="1347" y="759" />
              <mxPoint x="1292" y="759" />
            </Array>
            <mxPoint x="1457" y="770" as="sourcePoint" />
            <mxPoint as="offset" />
          </mxGeometry>
        </mxCell>
        <mxCell id="DnKeB8BzZF-OrxOQI9kB-94" value="Catch(SQLException | &lt;b style=&quot;color: rgb(240, 240, 240); font-size: 11px; font-style: normal;&quot;&gt;&lt;font color=&quot;#ff8000&quot;&gt;NumberFormatExcpetion | NullPointerExcpetion | GraduationCallDAOException | CallEvaluationDAOException&lt;/font&gt;&lt;/b&gt;)" style="text;html=1;align=center;verticalAlign=middle;whiteSpace=wrap;rounded=0;fontStyle=3;fontColor=#FF8000;" vertex="1" parent="1">
          <mxGeometry x="760" y="699.5" width="330" height="20" as="geometry" />
        </mxCell>
        <mxCell id="DnKeB8BzZF-OrxOQI9kB-95" value="verbalId" style="html=1;verticalAlign=bottom;endArrow=open;dashed=1;endSize=8;edgeStyle=elbowEdgeStyle;elbow=vertical;curved=0;rounded=0;" edge="1" parent="1" source="DnKeB8BzZF-OrxOQI9kB-87">
          <mxGeometry x="0.0031" relative="1" as="geometry">
            <mxPoint x="835" y="649" as="targetPoint" />
            <Array as="points">
              <mxPoint x="1255" y="648.75" />
              <mxPoint x="1285" y="658.75" />
              <mxPoint x="1360" y="658.75" />
              <mxPoint x="1305" y="658.75" />
            </Array>
            <mxPoint x="1350" y="648.75" as="sourcePoint" />
            <mxPoint as="offset" />
          </mxGeometry>
        </mxCell>
        <mxCell id="DnKeB8BzZF-OrxOQI9kB-105" value="verbalId" style="html=1;verticalAlign=bottom;endArrow=open;dashed=1;endSize=8;edgeStyle=elbowEdgeStyle;elbow=vertical;curved=0;rounded=0;" edge="1" parent="1" source="DnKeB8BzZF-OrxOQI9kB-38" target="DnKeB8BzZF-OrxOQI9kB-1">
          <mxGeometry relative="1" as="geometry">
            <mxPoint x="810" y="860" as="sourcePoint" />
            <mxPoint x="730" y="860" as="targetPoint" />
            <Array as="points">
              <mxPoint x="780" y="850" />
            </Array>
          </mxGeometry>
        </mxCell>
        <mxCell id="DnKeB8BzZF-OrxOQI9kB-108" value="show(verbalId)" style="html=1;verticalAlign=bottom;endArrow=block;edgeStyle=elbowEdgeStyle;elbow=vertical;curved=0;rounded=0;" edge="1" parent="1" source="DnKeB8BzZF-OrxOQI9kB-1" target="DnKeB8BzZF-OrxOQI9kB-23">
          <mxGeometry relative="1" as="geometry">
            <mxPoint x="650" y="880" as="sourcePoint" />
            <Array as="points">
              <mxPoint x="905" y="880" />
              <mxPoint x="717" y="890" />
              <mxPoint x="697" y="900" />
              <mxPoint x="717" y="890" />
            </Array>
            <mxPoint x="1798.5714285714287" y="880" as="targetPoint" />
          </mxGeometry>
        </mxCell>
      </root>
    </mxGraphModel>
  </diagram>
</mxfile>
